<?xml version="1.0" encoding="UTF-8"?>
<svg width="221px" height="37px" viewBox="0 0 882 149" version="1.1" xmlns="http://www.w3.org/2000/svg" xmlns:xlink="http://www.w3.org/1999/xlink">
    <!-- Generator: Sketch 61 (89581) - https://sketch.com -->
    <title>logov14</title>
    <desc>Created with Sketch.</desc>
    <defs>
        <circle id="path-1" cx="95.5" cy="57.5" r="50.5"></circle>
        <filter x="-5.0%" y="-5.0%" width="109.9%" height="109.9%" filterUnits="objectBoundingBox" id="filter-2">
            <feMorphology radius="6" operator="erode" in="SourceAlpha" result="shadowSpreadInner1"></feMorphology>
            <feOffset dx="-4" dy="2" in="shadowSpreadInner1" result="shadowOffsetInner1"></feOffset>
            <feComposite in="shadowOffsetInner1" in2="SourceAlpha" operator="arithmetic" k2="-1" k3="1" result="shadowInnerInner1"></feComposite>
            <feColorMatrix values="0 0 0 0 0   0 0 0 0 0   0 0 0 0 0  0 0 0 0.185150787 0" type="matrix" in="shadowInnerInner1"></feColorMatrix>
        </filter>
    </defs>
    <g id="Page-1" stroke="none" stroke-width="1" fill="none" fill-rule="evenodd">
        <g id="logov14" transform="translate(-7.000000, -12.000000)">
            <g id="Group" stroke-width="1" transform="translate(91.000000, 12.000000)">
                <path d="M5.51354441,82.3338908 C-2.32714764,82.3359991 -8.68275764,88.6916091 -8.68486592,96.5323011 C-8.6848666,96.5361157 -8.6848666,96.5361157 -8.68486592,96.5399303 C-8.68275918,104.374876 -2.32957272,110.724647 5.50537322,110.72254 L111.482624,110.694044 C119.323316,110.691936 125.678926,104.336326 125.681035,96.4956338 C125.681035,96.4918192 125.681035,96.4918192 125.681035,96.4880046 C125.678928,88.6530587 119.325741,82.3032879 111.490795,82.3053946 L5.51354441,82.3338908 Z" id="Rectangle" stroke="#979797" fill="#000000" transform="translate(58.498084, 96.513967) rotate(-45.000000) translate(-58.498084, -96.513967) "></path>
                <ellipse id="Oval" stroke="#000000" fill="#000000" cx="95.5" cy="58" rx="57" ry="57.5"></ellipse>
                <path d="M32.7558213,103.83034 C32.7548788,103.83034 32.7548788,103.83034 32.7539362,103.83034 C30.8179636,103.830861 29.2489697,105.400698 29.2494902,107.336671 C29.2500113,109.274287 30.8206293,110.844905 32.7582454,110.845426 L63.03746,110.853568 C63.0384025,110.853568 63.0384025,110.853568 63.0393451,110.853568 C64.9753177,110.853047 66.5443116,109.28321 66.543791,107.347237 C66.54327,105.409621 64.972652,103.839003 63.0350359,103.838482 L32.7558213,103.83034 Z" id="Rectangle" stroke="#000000" fill="#CCB7BB" transform="translate(47.896641, 107.341954) rotate(45.000000) translate(-47.896641, -107.341954) "></path>
                <path d="M27.4138673,109.175168 C27.4129248,109.175167 27.4129248,109.175167 27.4119822,109.175168 C25.4760096,109.175688 23.9070157,110.745526 23.9075362,112.681499 C23.9080572,114.619115 25.4786753,116.189733 27.4162914,116.190254 L57.6955059,116.198396 C57.6964485,116.198396 57.6964485,116.198396 57.6973911,116.198396 C59.6333637,116.197875 61.2023576,114.628037 61.201837,112.692065 C61.201316,110.754448 59.630698,109.18383 57.6930819,109.183309 L27.4138673,109.175168 Z" id="Rectangle" stroke="#000000" fill="#CCB7BB" transform="translate(42.554687, 112.686782) rotate(45.000000) translate(-42.554687, -112.686782) "></path>
                <path d="M22.0719133,114.519995 C22.0709707,114.519995 22.0709707,114.519995 22.0700282,114.519995 C20.1340555,114.520516 18.5650616,116.090354 18.5655822,118.026326 C18.5661032,119.963942 20.1367212,121.53456 22.0743374,121.535081 L52.3535519,121.543223 C52.3544945,121.543223 52.3544945,121.543223 52.355437,121.543223 C54.2914097,121.542703 55.8604036,119.972865 55.859883,118.036892 C55.859362,116.099276 54.288744,114.528658 52.3511279,114.528137 L22.0719133,114.519995 Z" id="Rectangle" stroke="#000000" fill="#CCB7BB" transform="translate(37.212733, 118.031609) rotate(45.000000) translate(-37.212733, -118.031609) "></path>
                <path d="M16.7299593,119.864823 C16.7290167,119.864823 16.7290167,119.864823 16.7280741,119.864823 C14.7921015,119.865343 13.2231076,121.435181 13.2236282,123.371154 C13.2241492,125.30877 14.7947672,126.879388 16.7323833,126.879909 L47.0115979,126.888051 C47.0125405,126.888051 47.0125405,126.888051 47.013483,126.888051 C48.9494556,126.88753 50.5184495,125.317692 50.517929,123.38172 C50.517408,121.444104 48.9467899,119.873486 47.0091738,119.872965 L16.7299593,119.864823 Z" id="Rectangle" stroke="#000000" fill="#CCB7BB" transform="translate(31.870779, 123.376437) rotate(45.000000) translate(-31.870779, -123.376437) "></path>
                <path d="M11.3880052,125.20965 C11.3870627,125.20965 11.3870627,125.20965 11.3861201,125.20965 C9.4501475,125.210171 7.88115359,126.780009 7.88167416,128.715981 C7.88219516,130.653598 9.45281319,132.224216 11.3904293,132.224737 L41.6696439,132.232878 C41.6705864,132.232879 41.6705864,132.232879 41.671529,132.232878 C43.6075016,132.232358 45.1764955,130.66252 45.175975,128.726547 C45.175454,126.788931 43.6048359,125.218313 41.6672198,125.217792 L11.3880052,125.20965 Z" id="Rectangle" stroke="#000000" fill="#CCB7BB" transform="translate(26.528825, 128.721264) rotate(45.000000) translate(-26.528825, -128.721264) "></path>
                <g id="Oval">
                    <use fill="#C7E7FF" fill-rule="evenodd" xlink:href="#path-1"></use>
                    <use fill="black" fill-opacity="1" filter="url(#filter-2)" xlink:href="#path-1"></use>
                    <circle stroke="#979797" stroke-width="1" stroke-linejoin="square" cx="95.5" cy="57.5" r="50"></circle>
                </g>
            </g>
            <text id="C" fill="#FFFFFF" font-family="HiraMaruProN-W4, Hiragino Maru Gothic ProN" font-size="140" font-weight="normal">
                <tspan x="0" y="124">C</tspan>
            </text>
            <text id="NFOUND" fill="#FFFFFF" font-family="HiraMaruProN-W4, Hiragino Maru Gothic ProN" font-size="140" font-weight="normal">
                <tspan x="258" y="123">NFOUND</tspan>
            </text>
        </g>
    </g>
</svg>